<?xml version="1.0" encoding="utf-8"?>
<!-- Generator: Adobe Illustrator 27.7.0, SVG Export Plug-In . SVG Version: 6.00 Build 0)  -->
<svg version="1.1" id="Layer_1" xmlns="http://www.w3.org/2000/svg" xmlns:xlink="http://www.w3.org/1999/xlink" x="0px" y="0px"
	 viewBox="0 0 246 54.5" style="enable-background:new 0 0 246 54.5;" xml:space="preserve">
<style type="text/css">
	.st0{fill:#FFFFFF;}
</style>
<g>
	<path class="st0" d="M20.7,40.4h-12l-1.7,6.9c-0.2,0.9-0.3,1.5-0.3,1.9c0,0.8,0.4,1.4,1.1,1.8v1H2v-1c0.5-0.2,1-0.6,1.3-1.2
		C3.6,49.2,4,48,4.4,46.3L12,16.8c0.4-1.6,0.6-2.8,0.6-3.4c0-0.9-0.3-1.4-1-1.6v-1h6.6v1c-0.7,0.3-1,0.8-1,1.6
		c0,0.5,0.3,1.8,0.8,3.9l7.3,28.4c0.5,1.9,0.9,3.2,1.3,3.9s0.8,1.1,1.3,1.3v1h-6v-1c0.6-0.2,1-0.7,1-1.2c0-0.3-0.2-1.1-0.5-2.4
		L20.7,40.4z M19.7,36.4l-5-20.1L9.7,36.4H19.7z"/>
	<path class="st0" d="M31.6,47.8V15c0-1-0.1-1.7-0.3-2.1c-0.2-0.4-0.5-0.8-1.1-1v-1h11.6c3.1,0,5.4,0.6,6.9,1.9
		c1.9,1.6,3.3,4.3,4.4,8.1c0.9,3.3,1.4,6.7,1.4,10.4c0,4.3-0.6,8.3-1.8,11.9c-1.1,3.1-2.4,5.4-4,6.7c-1.6,1.3-3.9,1.9-6.8,1.9H30.3
		v-1c0.5-0.2,0.9-0.6,1.1-1S31.6,48.8,31.6,47.8z M34.5,47.9h7.2c2.7,0,4.7-0.7,5.9-2c1.4-1.4,2.4-3.7,3.1-6.8
		c0.5-2.3,0.8-4.9,0.8-7.7c0-5-0.7-9-2.1-12c-0.8-1.6-1.8-2.8-2.9-3.5c-1.2-0.7-2.7-1-4.7-1h-7.2V47.9z"/>
	<path class="st0" d="M60.2,47.8V15c0-1-0.1-1.7-0.3-2.2c-0.2-0.4-0.5-0.7-1-1v-1h5.5v1c-0.5,0.2-0.9,0.6-1,1
		c-0.2,0.4-0.3,1.1-0.3,2.2v32.7c0,1,0.1,1.7,0.3,2.1c0.2,0.4,0.5,0.8,1,1v1h-5.5v-1c0.5-0.2,0.9-0.6,1-1S60.2,48.8,60.2,47.8z"/>
	<path class="st0" d="M101.5,13l-2.2,8l-0.5-0.4c0.1-0.7,0.1-1.2,0.1-1.5c0-0.6-0.4-1.3-1.3-2.1c-1.9-1.8-4.2-2.7-6.9-2.7
		c-2.2,0-4,0.7-5.5,2.2c-1.5,1.5-2.3,3.5-2.3,6.1c0,1.2,0.2,2.2,0.6,3.2s0.9,1.6,1.5,2c0.6,0.4,1.3,0.6,2.1,0.8
		c0.7,0.1,2.4,0.3,4.8,0.4c2.1,0.1,3.6,0.4,4.7,0.7s2,0.9,2.7,1.6c0.8,0.8,1.4,2,1.9,3.5c0.5,1.5,0.7,3.2,0.7,5c0,3.8-0.9,6.8-2.6,9
		c-2.1,2.7-4.8,4-8.3,4c-1.7,0-3.5-0.5-5.3-1.4c-1.9-0.9-3.6-2.2-5.2-3.8c-0.2-0.2-0.4-0.4-0.5-0.4c-0.2,0-0.5,0.4-0.9,1.3l-0.5-0.5
		l2.6-7.8l0.5,0.5c0,0.3-0.1,0.5-0.1,0.6c-0.1,0.4-0.1,0.7-0.1,1c0,0.7,0.7,1.7,2.1,3c2.3,2.2,4.8,3.3,7.3,3.3
		c2.3,0,4.2-0.7,5.7-2.1c0.7-0.7,1.3-1.6,1.8-2.8c0.4-1.2,0.7-2.4,0.7-3.6c0-1.2-0.2-2.2-0.6-3.1c-0.4-0.9-0.9-1.6-1.5-2
		c-0.6-0.3-1.2-0.6-1.9-0.7c-0.7-0.1-2-0.3-3.9-0.4c-2.2-0.2-3.9-0.4-4.8-0.6c-1-0.2-1.9-0.6-2.7-1.2c-1.1-0.7-2-1.9-2.6-3.4
		c-0.7-1.6-1-3.6-1-5.8c0-3.9,1-7,3-9.3c2-2.3,4.6-3.4,7.7-3.4c2.9,0,5.7,1.1,8.6,3.4c0.4,0.3,0.7,0.5,0.8,0.5
		c0.2,0,0.5-0.5,0.8-1.4L101.5,13z"/>
	<path class="st0" d="M122,40.4h-12l-1.7,6.9c-0.2,0.9-0.3,1.5-0.3,1.9c0,0.8,0.4,1.4,1.1,1.8v1h-5.6v-1c0.5-0.2,1-0.6,1.3-1.2
		c0.3-0.6,0.7-1.7,1.1-3.4l7.6-29.5c0.4-1.6,0.6-2.8,0.6-3.4c0-0.9-0.3-1.4-1-1.6v-1h6.6v1c-0.7,0.3-1,0.8-1,1.6
		c0,0.5,0.3,1.8,0.8,3.9l7.3,28.4c0.5,1.9,0.9,3.2,1.3,3.9c0.4,0.7,0.8,1.1,1.3,1.3v1h-6v-1c0.6-0.2,1-0.7,1-1.2
		c0-0.3-0.2-1.1-0.5-2.4L122,40.4z M121,36.4l-5-20.1L111,36.4H121z"/>
	<path class="st0" d="M147.9,40.4h-12l-1.7,6.9c-0.2,0.9-0.3,1.5-0.3,1.9c0,0.8,0.4,1.4,1.1,1.8v1h-5.6v-1c0.5-0.2,1-0.6,1.3-1.2
		c0.3-0.6,0.7-1.7,1.1-3.4l7.6-29.5c0.4-1.6,0.6-2.8,0.6-3.4c0-0.9-0.3-1.4-1-1.6v-1h6.6v1c-0.7,0.3-1,0.8-1,1.6
		c0,0.5,0.3,1.8,0.8,3.9l7.3,28.4c0.5,1.9,0.9,3.2,1.3,3.9c0.4,0.7,0.8,1.1,1.3,1.3v1h-6v-1c0.6-0.2,1-0.7,1-1.2
		c0-0.3-0.2-1.1-0.5-2.4L147.9,40.4z M146.9,36.4l-5-20.1l-5.1,20.1H146.9z"/>
	<path class="st0" d="M158.8,47.8V15c0-1-0.1-1.7-0.3-2.1c-0.2-0.4-0.5-0.8-1.1-1v-1H169c3.1,0,5.4,0.6,6.9,1.9
		c1.9,1.6,3.3,4.3,4.4,8.1c0.9,3.3,1.4,6.7,1.4,10.4c0,4.3-0.6,8.3-1.8,11.9c-1.1,3.1-2.4,5.4-4,6.7c-1.6,1.3-3.9,1.9-6.8,1.9h-11.6
		v-1c0.5-0.2,0.9-0.6,1.1-1S158.8,48.8,158.8,47.8z M161.7,47.9h7.2c2.7,0,4.7-0.7,5.9-2c1.4-1.4,2.4-3.7,3.1-6.8
		c0.5-2.3,0.8-4.9,0.8-7.7c0-5-0.7-9-2.1-12c-0.8-1.6-1.8-2.8-2.9-3.5s-2.7-1-4.7-1h-7.2V47.9z"/>
	<path class="st0" d="M196.7,33.8v14c0,1,0.1,1.7,0.3,2.1c0.2,0.4,0.5,0.8,1.1,1v1h-5.5v-1c0.5-0.2,0.9-0.6,1-1s0.3-1.1,0.3-2.1v-14
		l-7-16.5c-0.9-2-1.5-3.4-1.9-4s-0.9-1.1-1.5-1.4v-1h6.4v1c-0.6,0.2-0.9,0.6-0.9,1.4c0,0.7,0.2,1.5,0.6,2.3l6,14.2l5.6-14.1
		c0.4-1,0.6-1.8,0.6-2.3c0-0.8-0.3-1.3-0.9-1.5v-1h5.8v1c-0.6,0.4-1.2,1-1.7,1.9c-0.5,0.9-1.2,2.5-2.1,4.7L196.7,33.8z"/>
	<path class="st0" d="M225.1,40.4h-12l-1.7,6.9c-0.2,0.9-0.3,1.5-0.3,1.9c0,0.8,0.4,1.4,1.1,1.8v1h-5.6v-1c0.5-0.2,1-0.6,1.3-1.2
		c0.3-0.6,0.7-1.7,1.1-3.4l7.6-29.5c0.4-1.6,0.6-2.8,0.6-3.4c0-0.9-0.3-1.4-1-1.6v-1h6.6v1c-0.7,0.3-1,0.8-1,1.6
		c0,0.5,0.3,1.8,0.8,3.9l7.3,28.4c0.5,1.9,0.9,3.2,1.3,3.9c0.4,0.7,0.8,1.1,1.3,1.3v1h-6v-1c0.6-0.2,1-0.7,1-1.2
		c0-0.3-0.2-1.1-0.5-2.4L225.1,40.4z M224.1,36.4l-5-20.1l-5.1,20.1H224.1z"/>
	<path class="st0" d="M238.1,44.8c0.6,0,1.2,0.4,1.6,1.2s0.6,1.7,0.6,2.9c0,1.1-0.2,2-0.7,2.8c-0.4,0.8-1,1.2-1.6,1.2
		c-0.6,0-1.1-0.4-1.6-1.2c-0.4-0.8-0.7-1.7-0.7-2.8c0-1.1,0.2-2,0.6-2.8C236.9,45.2,237.5,44.8,238.1,44.8z"/>
</g>
</svg>
